<svg width="36" height="36" viewBox="0 0 36 36" fill="none" xmlns="http://www.w3.org/2000/svg">
<g clip-path="url(#clip0_1_4082)">
<path d="M18 15.75C18.2984 15.75 18.5845 15.8685 18.7955 16.0795C19.0065 16.2905 19.125 16.5766 19.125 16.875V20.25H22.5C22.7984 20.25 23.0845 20.3685 23.2955 20.5795C23.5065 20.7905 23.625 21.0766 23.625 21.375C23.625 21.6734 23.5065 21.9595 23.2955 22.1705C23.0845 22.3815 22.7984 22.5 22.5 22.5H19.125V25.875C19.125 26.1734 19.0065 26.4595 18.7955 26.6705C18.5845 26.8815 18.2984 27 18 27C17.7016 27 17.4155 26.8815 17.2045 26.6705C16.9935 26.4595 16.875 26.1734 16.875 25.875V22.5H13.5C13.2016 22.5 12.9155 22.3815 12.7045 22.1705C12.4935 21.9595 12.375 21.6734 12.375 21.375C12.375 21.0766 12.4935 20.7905 12.7045 20.5795C12.9155 20.3685 13.2016 20.25 13.5 20.25H16.875V16.875C16.875 16.5766 16.9935 16.2905 17.2045 16.0795C17.4155 15.8685 17.7016 15.75 18 15.75Z" fill="#3879E9"/>
<path d="M7.875 0C8.17337 0 8.45952 0.118526 8.6705 0.329505C8.88147 0.540483 9 0.826631 9 1.125V2.25H27V1.125C27 0.826631 27.1185 0.540483 27.3295 0.329505C27.5405 0.118526 27.8266 0 28.125 0C28.4234 0 28.7095 0.118526 28.9205 0.329505C29.1315 0.540483 29.25 0.826631 29.25 1.125V2.25H31.5C32.6935 2.25 33.8381 2.72411 34.682 3.56802C35.5259 4.41193 36 5.55653 36 6.75V31.5C36 32.6935 35.5259 33.8381 34.682 34.682C33.8381 35.5259 32.6935 36 31.5 36H4.5C3.30653 36 2.16193 35.5259 1.31802 34.682C0.474106 33.8381 0 32.6935 0 31.5V6.75C0 5.55653 0.474106 4.41193 1.31802 3.56802C2.16193 2.72411 3.30653 2.25 4.5 2.25H6.75V1.125C6.75 0.826631 6.86853 0.540483 7.0795 0.329505C7.29048 0.118526 7.57663 0 7.875 0V0ZM2.25 9V31.5C2.25 32.0967 2.48705 32.669 2.90901 33.091C3.33097 33.5129 3.90326 33.75 4.5 33.75H31.5C32.0967 33.75 32.669 33.5129 33.091 33.091C33.5129 32.669 33.75 32.0967 33.75 31.5V9H2.25Z" fill="#3879E9"/>
</g>
<defs>
<clipPath id="clip0_1_4082">
<rect width="36" height="36" fill="white"/>
</clipPath>
</defs>
</svg>
