<svg width="30" height="30" viewBox="0 0 30 30" fill="none" xmlns="http://www.w3.org/2000/svg">
<path d="M11.4275 26.9819C9.36004 26.3646 7.48761 25.2226 5.9925 23.6669C6.47355 23.0964 6.77342 22.3953 6.85374 21.6533C6.93407 20.9114 6.7912 20.1623 6.4434 19.502C6.09561 18.8418 5.55872 18.3003 4.90143 17.9469C4.24414 17.5934 3.49635 17.4442 2.75375 17.5182C2.58457 16.6895 2.49956 15.8458 2.5 15C2.5 13.6938 2.7 12.4338 3.0725 11.25H3.125C3.76235 11.2502 4.38923 11.088 4.94646 10.7786C5.50369 10.4693 5.97287 10.023 6.30971 9.4819C6.64655 8.94083 6.83992 8.32284 6.87158 7.68628C6.90323 7.04972 6.77212 6.41559 6.49063 5.84378C7.956 4.47929 9.72816 3.48742 11.6575 2.9519C11.9715 3.56841 12.4499 4.08603 13.0398 4.4475C13.6297 4.80897 14.3081 5.0002 15 5.00003C15.6919 5.0002 16.3703 4.80897 16.9602 4.4475C17.5501 4.08603 18.0285 3.56841 18.3425 2.9519C20.2718 3.48742 22.044 4.47929 23.5094 5.84378C23.2258 6.4196 23.0948 7.05856 23.1289 7.6995C23.163 8.34044 23.361 8.96191 23.704 9.50442C24.047 10.0469 24.5235 10.4923 25.0879 10.798C25.6523 11.1036 26.2857 11.2593 26.9275 11.25C27.3081 12.4636 27.5012 13.7282 27.5 15C27.5 15.8625 27.4125 16.705 27.2463 17.5188C26.5037 17.4448 25.7559 17.5941 25.0986 17.9475C24.4413 18.3009 23.9044 18.8424 23.5566 19.5027C23.2088 20.163 23.0659 20.912 23.1463 21.6539C23.2266 22.3959 23.5265 23.097 24.0075 23.6675C22.5123 25.223 20.6399 26.3648 18.5725 26.9819C18.3297 26.2252 17.8529 25.5652 17.2109 25.0969C16.5688 24.6286 15.7947 24.3762 15 24.3762C14.2053 24.3762 13.4312 24.6286 12.7891 25.0969C12.1471 25.5652 11.6703 26.2252 11.4275 26.9819Z" stroke="#757780" stroke-width="2" stroke-linejoin="round"/>
<path d="M15 19.375C15.5745 19.375 16.1434 19.2618 16.6742 19.042C17.205 18.8221 17.6873 18.4998 18.0936 18.0936C18.4998 17.6873 18.8221 17.205 19.042 16.6742C19.2618 16.1434 19.375 15.5745 19.375 15C19.375 14.4255 19.2618 13.8566 19.042 13.3258C18.8221 12.795 18.4998 12.3127 18.0936 11.9064C17.6873 11.5002 17.205 11.1779 16.6742 10.958C16.1434 10.7382 15.5745 10.625 15 10.625C13.8397 10.625 12.7269 11.0859 11.9064 11.9064C11.0859 12.7269 10.625 13.8397 10.625 15C10.625 16.1603 11.0859 17.2731 11.9064 18.0936C12.7269 18.9141 13.8397 19.375 15 19.375V19.375Z" stroke="#757780" stroke-width="2" stroke-linejoin="round"/>
</svg>
